<svg width="100" height="100" viewBox="0 0 100 100" fill="none" xmlns="http://www.w3.org/2000/svg">
<mask id="mask0_319_2892" style="mask-type:alpha" maskUnits="userSpaceOnUse" x="0" y="0" width="100" height="100">
<rect width="100" height="100" transform="matrix(-1 0 0 1 100 0)" fill="#D9D9D9"/>
</mask>
<g mask="url(#mask0_319_2892)">
<path d="M50.0003 66.6667L33.3337 50L50.0003 33.3333L55.8337 39.1666L49.167 45.8333H66.667V54.1666H49.167L55.8337 60.8333L50.0003 66.6667ZM50.0003 91.6667C55.7642 91.6667 61.1809 90.5729 66.2503 88.3854C71.3198 86.1979 75.7295 83.2292 79.4795 79.4792C83.2295 75.7292 86.1982 71.3194 88.3857 66.25C90.5732 61.1805 91.667 55.7639 91.667 50C91.667 44.2361 90.5732 38.8194 88.3857 33.75C86.1982 28.6805 83.2295 24.2708 79.4795 20.5208C75.7295 16.7708 71.3198 13.8021 66.2503 11.6146C61.1809 9.42706 55.7642 8.33331 50.0003 8.33331C44.2364 8.33331 38.8198 9.42706 33.7503 11.6146C28.6809 13.8021 24.2712 16.7708 20.5212 20.5208C16.7711 24.2708 13.8024 28.6805 11.6149 33.75C9.4274 38.8194 8.33365 44.2361 8.33365 50C8.33365 55.7639 9.4274 61.1805 11.6149 66.25C13.8024 71.3194 16.7711 75.7292 20.5212 79.4792C24.2712 83.2292 28.6809 86.1979 33.7503 88.3854C38.8198 90.5729 44.2364 91.6667 50.0003 91.6667ZM50.0003 83.3333C40.6948 83.3333 32.8128 80.1042 26.3545 73.6458C19.8962 67.1875 16.667 59.3055 16.667 50C16.667 40.6944 19.8962 32.8125 26.3545 26.3541C32.8128 19.8958 40.6948 16.6666 50.0003 16.6666C59.3059 16.6666 67.1878 19.8958 73.6462 26.3541C80.1045 32.8125 83.3337 40.6944 83.3337 50C83.3337 59.3055 80.1045 67.1875 73.6462 73.6458C67.1878 80.1042 59.3059 83.3333 50.0003 83.3333Z" fill="#FFEF9B"/>
</g>
</svg>
