<svg width="100" height="100" viewBox="0 0 100 100" fill="none" xmlns="http://www.w3.org/2000/svg">
<mask id="mask0_319_2882" style="mask-type:alpha" maskUnits="userSpaceOnUse" x="0" y="0" width="100" height="100">
<rect width="100" height="100" fill="#D9D9D9"/>
</mask>
<g mask="url(#mask0_319_2882)">
<path d="M49.9997 66.6667L66.6663 50L49.9997 33.3333L44.1663 39.1667L50.833 45.8333H33.333V54.1667H50.833L44.1663 60.8333L49.9997 66.6667ZM49.9997 91.6667C44.2358 91.6667 38.8191 90.5729 33.7497 88.3854C28.6802 86.1979 24.2705 83.2292 20.5205 79.4792C16.7705 75.7292 13.8018 71.3195 11.6143 66.25C9.42676 61.1806 8.33301 55.7639 8.33301 50C8.33301 44.2361 9.42676 38.8195 11.6143 33.75C13.8018 28.6806 16.7705 24.2708 20.5205 20.5208C24.2705 16.7708 28.6802 13.8021 33.7497 11.6146C38.8191 9.42709 44.2358 8.33334 49.9997 8.33334C55.7636 8.33334 61.1802 9.42709 66.2497 11.6146C71.3191 13.8021 75.7288 16.7708 79.4788 20.5208C83.2289 24.2708 86.1976 28.6806 88.3851 33.75C90.5726 38.8195 91.6663 44.2361 91.6663 50C91.6663 55.7639 90.5726 61.1806 88.3851 66.25C86.1976 71.3195 83.2289 75.7292 79.4788 79.4792C75.7288 83.2292 71.3191 86.1979 66.2497 88.3854C61.1802 90.5729 55.7636 91.6667 49.9997 91.6667ZM49.9997 83.3333C59.3052 83.3333 67.1872 80.1042 73.6455 73.6458C80.1038 67.1875 83.333 59.3056 83.333 50C83.333 40.6945 80.1038 32.8125 73.6455 26.3542C67.1872 19.8958 59.3052 16.6667 49.9997 16.6667C40.6941 16.6667 32.8122 19.8958 26.3538 26.3542C19.8955 32.8125 16.6663 40.6945 16.6663 50C16.6663 59.3056 19.8955 67.1875 26.3538 73.6458C32.8122 80.1042 40.6941 83.3333 49.9997 83.3333Z" fill="#FFEF9B"/>
</g>
</svg>
