<svg width="100" height="98" viewBox="0 0 100 98" fill="none" xmlns="http://www.w3.org/2000/svg">
<path d="M50 0C77.625 0 100 22.375 100 50C99.9973 60.4763 96.7094 70.6879 90.599 79.1976C84.4886 87.7073 75.8634 94.0866 65.9375 97.4375C63.4375 97.9375 62.5 96.375 62.5 95.0625C62.5 93.375 62.5625 88 62.5625 81.3125C62.5625 76.625 61 73.625 59.1875 72.0625C70.3125 70.8125 82 66.5625 82 47.375C82 41.875 80.0625 37.4375 76.875 33.9375C77.375 32.6875 79.125 27.5625 76.375 20.6875C76.375 20.6875 72.1875 19.3125 62.625 25.8125C58.625 24.6875 54.375 24.125 50.125 24.125C45.875 24.125 41.625 24.6875 37.625 25.8125C28.0625 19.375 23.875 20.6875 23.875 20.6875C21.125 27.5625 22.875 32.6875 23.375 33.9375C20.1875 37.4375 18.25 41.9375 18.25 47.375C18.25 66.5 29.875 70.8125 41 72.0625C39.5625 73.3125 38.25 75.5 37.8125 78.75C34.9375 80.0625 27.75 82.1875 23.25 74.625C22.3125 73.125 19.5 69.4375 15.5625 69.5C11.375 69.5625 13.875 71.875 15.625 72.8125C17.75 74 20.1875 78.4375 20.75 79.875C21.75 82.6875 25 88.0625 37.5625 85.75C37.5625 89.9375 37.625 93.875 37.625 95.0625C37.625 96.375 36.6875 97.875 34.1875 97.4375C24.229 94.1227 15.5671 87.7563 9.43057 79.2415C3.29404 70.7266 -0.00550299 60.4957 6.88945e-06 50C6.88945e-06 22.375 22.375 0 50 0Z" fill="#FFEF9B"/>
</svg>
