<svg width="1381" height="646" viewBox="0 0 1381 646" fill="none" xmlns="http://www.w3.org/2000/svg">
<path fill-rule="evenodd" clip-rule="evenodd" d="M2 2H319V319H2V2ZM0 0H2H319H321V2V319V321H319H103.001C103.006 323.549 103.05 326.109 103.133 328.678L101.134 328.743C101.05 326.152 101.006 323.571 101 321H2H0V319V2V0ZM1176.85 73L1178 71L1179.15 73L1379.5 420L1380.65 422H1378.34H977.659H975.35L976.505 420L1089.92 223.562C1087.54 222.313 1085.16 221.095 1082.8 219.906L1083.69 218.119C1086.09 219.325 1088.5 220.561 1090.92 221.828L1176.85 73ZM978.814 420L1178 75L1377.19 420H978.814ZM935.161 180.475C929.382 180.353 923.676 180.408 918.043 180.629L917.964 178.631C923.637 178.408 929.384 178.353 935.203 178.476L935.161 180.475ZM969.308 183.213C963.563 182.417 957.882 181.798 952.267 181.346L952.427 179.353C958.081 179.807 963.799 180.431 969.583 181.232L969.308 183.213ZM900.971 181.825C895.236 182.404 889.581 183.156 884.007 184.067L883.684 182.094C889.298 181.175 894.993 180.419 900.77 179.835L900.971 181.825ZM1002.85 189.734C997.234 188.331 991.674 187.097 986.171 186.025L986.553 184.061C992.091 185.141 997.685 186.382 1003.34 187.793L1002.85 189.734ZM867.213 187.345C861.604 188.619 856.082 190.053 850.648 191.636L850.089 189.715C855.56 188.122 861.121 186.678 866.77 185.395L867.213 187.345ZM1035.6 199.647C1030.12 197.703 1024.7 195.92 1019.33 194.291L1019.91 192.377C1025.31 194.015 1030.76 195.808 1036.26 197.762L1035.6 199.647ZM834.367 196.903C828.955 198.83 823.636 200.901 818.413 203.102L817.636 201.259C822.894 199.044 828.247 196.959 833.696 195.019L834.367 196.903ZM1067.42 212.544C1062.12 210.133 1056.86 207.872 1051.65 205.756L1052.4 203.903C1057.64 206.029 1062.92 208.301 1068.25 210.724L1067.42 212.544ZM802.816 210.186C797.649 212.704 792.583 215.345 787.617 218.093L786.649 216.344C791.643 213.579 796.741 210.922 801.94 208.388L802.816 210.186ZM772.84 226.765C767.951 229.797 763.171 232.928 758.498 236.141L757.365 234.493C762.062 231.263 766.87 228.115 771.785 225.065L772.84 226.765ZM744.602 246.165C740.004 249.639 735.522 253.183 731.157 256.78L729.885 255.237C734.271 251.622 738.775 248.061 743.396 244.569L744.602 246.165ZM718.169 267.932C713.846 271.795 709.653 275.696 705.59 279.615L704.202 278.175C708.282 274.239 712.494 270.321 716.836 266.441L718.169 267.932ZM693.459 291.751C689.419 295.942 685.527 300.129 681.785 304.289L680.298 302.951C684.055 298.775 687.962 294.571 692.019 290.363L693.459 291.751ZM670.535 317.225C666.735 321.744 663.121 326.196 659.695 330.55L658.123 329.313C661.563 324.943 665.19 320.474 669.004 315.938L670.535 317.225ZM649.319 344.174C647.953 346.028 646.626 347.854 645.338 349.649C673.721 381.113 691 422.789 691 468.5C691 566.531 611.531 646 513.5 646C415.469 646 336 566.531 336 468.5C336 370.469 415.469 291 513.5 291C565.084 291 611.529 313.005 643.96 348.139C645.175 346.448 646.425 344.73 647.708 342.988L649.319 344.174ZM689 468.5C689 422.978 671.669 381.505 643.244 350.318L642.686 349.919L642.771 349.8C610.693 314.884 564.652 293 513.5 293C416.574 293 338 371.574 338 468.5C338 565.426 416.574 644 513.5 644C610.426 644 689 565.426 689 468.5ZM104.327 361.586C103.438 356.117 102.732 350.652 102.203 345.21L104.193 345.017C104.718 350.417 105.419 355.838 106.301 361.265L104.327 361.586ZM111.716 393.742C110.127 388.443 108.722 383.115 107.496 377.776L109.445 377.328C110.661 382.626 112.055 387.911 113.631 393.168L111.716 393.742ZM123.298 424.638C121.006 419.604 118.901 414.513 116.979 409.379L118.852 408.677C120.759 413.769 122.846 418.818 125.118 423.809L123.298 424.638ZM139.069 453.625C136.079 448.966 133.277 444.222 130.659 439.407L132.416 438.451C135.011 443.224 137.788 447.927 140.752 452.545L139.069 453.625ZM158.915 479.99C155.254 475.822 151.781 471.545 148.492 467.174L150.09 465.971C153.349 470.303 156.79 474.541 160.417 478.67L158.915 479.99ZM182.519 503.043C178.256 499.474 174.176 495.778 170.275 491.968L171.672 490.537C175.537 494.312 179.579 497.973 183.803 501.51L182.519 503.043ZM209.348 522.253C204.591 519.358 200.007 516.326 195.593 513.167L196.756 511.541C201.131 514.67 205.673 517.675 210.388 520.545L209.348 522.253ZM238.706 537.35C233.562 535.144 228.577 532.797 223.751 530.317L224.665 528.538C229.45 530.996 234.392 533.324 239.495 535.512L238.706 537.35ZM269.789 548.336C264.412 546.809 259.178 545.143 254.086 543.347L254.751 541.461C259.804 543.243 264.998 544.896 270.335 546.412L269.789 548.336ZM301.962 555.491C296.438 554.58 291.042 553.538 285.772 552.369L286.205 550.417C291.438 551.577 296.799 552.613 302.287 553.518L301.962 555.491ZM334.712 559.209C329.126 558.845 323.654 558.359 318.293 557.753L318.517 555.766C323.846 556.368 329.287 556.852 334.842 557.213L334.712 559.209ZM359.501 560C356.7 560 353.926 559.971 351.177 559.913L351.219 557.914C353.954 557.971 356.714 558 359.501 558V560Z" fill="#FFEF9B" fill-opacity="1"/>
</svg>
