<svg width="100" height="100" viewBox="0 0 100 100" fill="none" xmlns="http://www.w3.org/2000/svg">
<path d="M92.5 0H7.5C5.51088 0 3.60322 0.790177 2.1967 2.1967C0.790177 3.60322 0 5.51088 0 7.5V92.5C0 94.4891 0.790177 96.3968 2.1967 97.8033C3.60322 99.2098 5.51088 100 7.5 100H92.5C94.4891 100 96.3968 99.2098 97.8033 97.8033C99.2098 96.3968 100 94.4891 100 92.5V7.5C100 5.51088 99.2098 3.60322 97.8033 2.1967C96.3968 0.790177 94.4891 0 92.5 0ZM30 85H15V40H30V85ZM22.5 31.25C20.7809 31.2009 19.1144 30.6462 17.7088 29.6554C16.3031 28.6645 15.2206 27.2814 14.5965 25.6789C13.9724 24.0763 13.8344 22.3254 14.1997 20.6449C14.565 18.9643 15.4175 17.4287 16.6506 16.2299C17.8836 15.031 19.4427 14.2222 21.1328 13.9043C22.823 13.5865 24.5693 13.7737 26.1537 14.4427C27.738 15.1117 29.0901 16.2327 30.041 17.6657C30.9918 19.0988 31.4993 20.7802 31.5 22.5C31.4605 24.8517 30.4917 27.0922 28.8053 28.7318C27.1188 30.3714 24.8519 31.2768 22.5 31.25ZM85 85H70V61.3C70 54.2 67 51.65 63.1 51.65C61.9565 51.7261 60.8394 52.0274 59.8127 52.5365C58.7861 53.0457 57.8701 53.7526 57.1174 54.6168C56.3648 55.481 55.7903 56.4853 55.4269 57.5722C55.0635 58.659 54.9184 59.8069 55 60.95C54.9752 61.1827 54.9752 61.4173 55 61.65V85H40V40H54.5V46.5C55.9626 44.275 57.9721 42.4629 60.3359 41.2372C62.6998 40.0115 65.3387 39.4133 68 39.5C75.75 39.5 84.8 43.8 84.8 57.8L85 85Z" fill="#FFEF9B"/>
</svg>
