<svg width="397" height="234" viewBox="0 0 397 234" fill="none" xmlns="http://www.w3.org/2000/svg">
<path d="M2.77148 184L28.7227 61.2148H72.2266V148.391H72.8984L113.043 61.2148H157.219L130.932 184H101.453L111.279 137.893C113.127 129.326 114.751 122.299 116.15 116.812C117.55 111.326 118.698 106.958 119.594 103.711C120.546 100.408 121.217 97.804 121.609 95.9004H120.938L80.457 184H49.3828V95.9004H48.7109C47.8151 101.667 46.9473 107.154 46.1074 112.361C45.2676 117.512 44.4557 122.299 43.6719 126.723C42.944 131.146 42.2161 135.205 41.4883 138.9L31.998 184H2.77148ZM179.612 185.68C173.509 185.68 167.687 184.98 162.144 183.58C156.657 182.18 151.926 180.193 147.95 177.617V148.223C152.429 150.966 157.692 153.402 163.739 155.529C169.842 157.657 175.469 158.721 180.62 158.721C182.692 158.721 184.511 158.497 186.079 158.049C187.647 157.601 188.963 156.957 190.026 156.117C191.09 155.277 191.874 154.242 192.378 153.01C192.938 151.722 193.218 150.294 193.218 148.727C193.218 146.655 192.602 144.723 191.37 142.932C190.138 141.14 188.459 139.376 186.331 137.641C184.259 135.849 181.964 133.917 179.444 131.846C175.693 128.766 172.39 125.547 169.534 122.188C166.735 118.828 164.551 115.161 162.983 111.186C161.472 107.154 160.716 102.647 160.716 97.6641C160.716 92.1211 161.752 87.026 163.823 82.3789C165.895 77.7318 168.834 73.7005 172.642 70.2852C176.505 66.8138 181.096 64.1543 186.415 62.3066C191.79 60.403 197.725 59.4512 204.22 59.4512C210.827 59.4512 217.209 60.235 223.368 61.8027C229.583 63.3704 235.238 65.582 240.333 68.4375L228.995 93.3809C225.076 91.4212 220.961 89.7135 216.649 88.2578C212.394 86.7461 208.363 85.9902 204.556 85.9902C202.204 85.9902 200.301 86.2982 198.845 86.9141C197.389 87.474 196.269 88.2298 195.485 89.1816C194.702 90.0775 194.142 91.0573 193.806 92.1211C193.526 93.1849 193.386 94.2207 193.386 95.2285C193.386 96.9642 193.75 98.6439 194.478 100.268C195.261 101.835 196.633 103.599 198.593 105.559C200.552 107.462 203.324 109.758 206.907 112.445C211.442 115.805 215.138 119.22 217.993 122.691C220.905 126.163 223.032 129.83 224.376 133.693C225.72 137.501 226.392 141.7 226.392 146.291C226.392 152.394 225.356 157.881 223.284 162.752C221.213 167.623 218.189 171.766 214.214 175.182C210.239 178.597 205.34 181.201 199.517 182.992C193.75 184.784 187.115 185.68 179.612 185.68Z" fill="#1A1A1A"/>
<path d="M255.311 181.145L254.41 182.93L254.416 182.933L254.423 182.937L255.311 181.145ZM241.285 168.463L239.565 169.484L239.569 169.491L239.573 169.497L241.285 168.463ZM236.75 144.527L238.743 144.693L238.743 144.689L236.75 144.527ZM237.506 138.732L235.551 138.311L235.545 138.337L235.54 138.364L237.506 138.732ZM254.219 61.2148V59.2148H252.604L252.264 60.7933L254.219 61.2148ZM287.057 61.2148L289.013 61.6326L289.529 59.2148H287.057V61.2148ZM270.68 137.893L268.724 137.475L268.721 137.487L270.68 137.893ZM272.275 155.445L270.84 156.838L270.851 156.849L270.861 156.86L272.275 155.445ZM288.736 156.033L287.684 154.333L287.674 154.338L287.665 154.344L288.736 156.033ZM294.699 149.062L292.923 148.144L292.917 148.156L294.699 149.062ZM298.898 136.213L296.943 135.795L296.941 135.801L298.898 136.213ZM314.939 61.2148V59.2148H313.322L312.984 60.7965L314.939 61.2148ZM347.777 61.2148L349.733 61.6325L350.249 59.2148H347.777V61.2148ZM331.064 139.488L329.109 139.071L329.106 139.081L331.064 139.488ZM321.574 164.768L323.272 165.825L323.276 165.819L321.574 164.768ZM304.441 180.389L305.325 182.183L305.336 182.178L304.441 180.389ZM277.23 183.68C268.953 183.68 261.965 182.209 256.198 179.352L254.423 182.937C260.862 186.127 268.487 187.68 277.23 187.68V183.68ZM256.212 179.359C250.413 176.433 246.033 172.454 242.997 167.429L239.573 169.497C243.032 175.222 248.002 179.697 254.41 182.93L256.212 179.359ZM243.005 167.442C240.014 162.404 238.498 156.66 238.498 150.154H234.498C234.498 157.31 236.174 163.772 239.565 169.484L243.005 167.442ZM238.498 150.154C238.498 148.482 238.579 146.663 238.743 144.693L234.757 144.361C234.585 146.423 234.498 148.355 234.498 150.154H238.498ZM238.743 144.689C238.907 142.677 239.15 140.816 239.472 139.101L235.54 138.364C235.19 140.233 234.929 142.234 234.757 144.366L238.743 144.689ZM239.461 139.154L256.174 61.6364L252.264 60.7933L235.551 138.311L239.461 139.154ZM254.219 63.2148H287.057V59.2148H254.219V63.2148ZM285.101 60.7971L268.724 137.475L272.636 138.31L289.013 61.6326L285.101 60.7971ZM268.721 137.487C268.375 139.159 268.088 140.857 267.857 142.583L271.822 143.112C272.04 141.478 272.312 139.874 272.638 138.298L268.721 137.487ZM267.857 142.583C267.624 144.337 267.504 145.994 267.504 147.551H271.504C271.504 146.196 271.608 144.718 271.822 143.112L267.857 142.583ZM267.504 147.551C267.504 151.285 268.541 154.469 270.84 156.838L273.711 154.052C272.315 152.614 271.504 150.535 271.504 147.551H267.504ZM270.861 156.86C273.2 159.199 276.471 160.217 280.338 160.217V156.217C277.15 156.217 275.046 155.387 273.69 154.031L270.861 156.86ZM280.338 160.217C283.938 160.217 287.129 159.421 289.807 157.722L287.665 154.344C285.753 155.557 283.344 156.217 280.338 156.217V160.217ZM289.789 157.734C292.531 156.036 294.74 153.393 296.482 149.969L292.917 148.156C291.411 151.115 289.645 153.119 287.684 154.333L289.789 157.734ZM296.476 149.981C298.268 146.517 299.715 142.043 300.856 136.625L296.941 135.801C295.842 141.02 294.49 145.114 292.923 148.144L296.476 149.981ZM300.854 136.631L316.895 61.6332L312.984 60.7965L296.943 135.795L300.854 136.631ZM314.939 63.2148H347.777V59.2148H314.939V63.2148ZM345.821 60.7972L329.109 139.071L333.02 139.906L349.733 61.6325L345.821 60.7972ZM329.106 139.081C327.07 148.876 323.979 157.071 319.873 163.716L323.276 165.819C327.68 158.69 330.915 150.033 333.023 139.895L329.106 139.081ZM319.877 163.71C315.816 170.229 310.382 175.182 303.547 178.6L305.336 182.178C312.834 178.428 318.822 172.968 323.272 165.825L319.877 163.71ZM303.558 178.594C296.749 181.946 288.006 183.68 277.23 183.68V187.68C288.402 187.68 297.8 185.886 305.325 182.183L303.558 178.594ZM337.333 184L335.376 183.586L334.866 186H337.333V184ZM363.284 61.2148V59.2148H361.663L361.327 60.8013L363.284 61.2148ZM396.122 61.2148L398.079 61.6284L398.589 59.2148H396.122V61.2148ZM370.171 184V186H371.792L372.128 184.414L370.171 184ZM339.29 184.414L365.241 61.6284L361.327 60.8013L335.376 183.586L339.29 184.414ZM363.284 63.2148H396.122V59.2148H363.284V63.2148ZM394.165 60.8013L368.214 183.586L372.128 184.414L398.079 61.6284L394.165 60.8013ZM370.171 182H337.333V186H370.171V182Z" fill="#1A1A1A"/>
</svg>
