<svg width="553" height="269" viewBox="0 0 553 269" fill="none" xmlns="http://www.w3.org/2000/svg">
<path fill-rule="evenodd" clip-rule="evenodd" d="M10 10H133.729V133.729H50.3167C50.3228 136.761 50.4728 139.834 50.7735 142.927L48.7829 143.12C48.4759 139.963 48.3228 136.825 48.3166 133.729H10V10ZM12 12H131.729V131.729H12V12Z" fill="#FFEF9B"/>
<path fill-rule="evenodd" clip-rule="evenodd" d="M464.059 37.3668L542.171 172.659H385.948L429.801 96.7047C427.402 95.4478 425.025 94.271 422.67 93.1714L423.517 91.3593C425.923 92.4831 428.351 93.6861 430.801 94.9712L464.059 37.3668ZM389.412 170.659L464.059 41.3668L538.706 170.659H389.412Z" fill="#FFEF9B"/>
<path d="M375.362 80.3924C369.721 80.0216 364.255 80.0918 358.966 80.5441L358.796 78.5514C364.184 78.0905 369.751 78.0193 375.493 78.3968L375.362 80.3924Z" fill="#FFEF9B"/>
<path d="M407.425 86.9962C402.024 85.1466 396.751 83.7041 391.608 82.6306L392.017 80.6728C397.243 81.7637 402.596 83.2284 408.073 85.1041L407.425 86.9962Z" fill="#FFEF9B"/>
<path d="M342.809 83.1858C337.391 84.5023 332.189 86.2088 327.205 88.2275L326.454 86.3738C331.523 84.3205 336.818 82.5832 342.336 81.2423L342.809 83.1858Z" fill="#FFEF9B"/>
<path d="M312.449 95.4077C307.607 98.1685 303.021 101.194 298.694 104.39L297.506 102.781C301.891 99.5429 306.543 96.4733 311.458 93.6704L312.449 95.4077Z" fill="#FFEF9B"/>
<path d="M285.996 114.843C281.783 118.682 277.9 122.607 274.352 126.484L272.876 125.134C276.461 121.216 280.387 117.248 284.649 113.364L285.996 114.843Z" fill="#FFEF9B"/>
<path fill-rule="evenodd" clip-rule="evenodd" d="M263.762 139.07C262.108 141.205 260.575 143.271 259.164 145.241C269.855 157.312 276.346 173.19 276.346 190.583C276.346 228.369 245.714 259 207.928 259C182.537 259 160.376 245.168 148.57 224.628V226.466C145.281 226.466 142.083 226.362 138.975 226.16L139.105 224.164C142.139 224.362 145.263 224.464 148.477 224.466C142.772 214.477 139.511 202.91 139.511 190.583C139.511 152.797 170.143 122.166 207.928 122.166C227.586 122.166 245.307 130.456 257.786 143.731C259.142 141.846 260.607 139.877 262.18 137.846L263.762 139.07ZM207.928 257C244.61 257 274.346 227.264 274.346 190.583C274.346 153.902 244.61 124.166 207.928 124.166C171.247 124.166 141.511 153.902 141.511 190.583C141.511 227.264 171.247 257 207.928 257Z" fill="#FFEF9B"/>
<path d="M59.8232 179.662C56.721 173.956 54.2871 167.996 52.4727 161.944L54.3884 161.37C56.1654 167.296 58.5475 173.128 61.5804 178.707L59.8232 179.662Z" fill="#FFEF9B"/>
<path d="M85.034 208.299C79.6484 204.446 74.9136 200.109 70.7925 195.417L72.2951 194.097C76.3178 198.677 80.9394 202.911 86.1978 206.673L85.034 208.299Z" fill="#FFEF9B"/>
<path d="M120.018 223.51C113.436 222.051 107.36 220.084 101.768 217.686L102.556 215.848C108.029 218.195 113.986 220.124 120.451 221.557L120.018 223.51Z" fill="#FFEF9B"/>
<path d="M94.7676 186L69.6562 97.5645H68.9004C69.1243 99.86 69.3483 102.967 69.5723 106.887C69.8522 110.806 70.1042 115.033 70.3281 119.568C70.5521 124.104 70.6641 128.471 70.6641 132.67V186H41.2695V63.2148H85.4453L111.061 150.391H111.732L136.844 63.2148H181.104V186H150.617V132.166C150.617 128.303 150.673 124.16 150.785 119.736C150.953 115.257 151.121 111.058 151.289 107.139C151.513 103.163 151.709 100.028 151.877 97.7324H151.121L126.346 186H94.7676Z" fill="#FFEF9B"/>
<path d="M287.848 148.711C287.848 155.374 286.168 161.701 282.809 167.691C279.449 173.626 274.214 178.441 267.104 182.137C260.049 185.832 250.923 187.68 239.725 187.68C234.126 187.68 229.199 187.428 224.943 186.924C220.744 186.42 216.825 185.608 213.186 184.488C209.546 183.312 205.767 181.801 201.848 179.953V150.391C208.51 153.75 215.229 156.326 222.004 158.117C228.779 159.853 234.91 160.721 240.396 160.721C243.7 160.721 246.387 160.329 248.459 159.545C250.587 158.761 252.154 157.697 253.162 156.354C254.17 154.954 254.674 153.358 254.674 151.566C254.674 149.439 253.918 147.647 252.406 146.191C250.951 144.68 248.599 143.112 245.352 141.488C242.104 139.865 237.821 137.849 232.502 135.441C227.967 133.314 223.852 131.13 220.156 128.891C216.517 126.651 213.382 124.104 210.75 121.248C208.174 118.337 206.187 114.949 204.787 111.086C203.387 107.223 202.688 102.66 202.688 97.3965C202.688 89.502 204.619 82.8952 208.482 77.5762C212.402 72.2012 217.833 68.1699 224.775 65.4824C231.774 62.7949 239.837 61.4512 248.963 61.4512C256.969 61.4512 264.164 62.347 270.547 64.1387C276.986 65.9303 282.753 67.974 287.848 70.2695L277.686 95.8848C272.423 93.4772 267.243 91.5736 262.148 90.1738C257.053 88.7181 252.322 87.9902 247.955 87.9902C245.1 87.9902 242.748 88.3542 240.9 89.082C239.109 89.7539 237.765 90.6777 236.869 91.8535C236.029 93.0293 235.609 94.373 235.609 95.8848C235.609 97.7884 236.337 99.4961 237.793 101.008C239.305 102.52 241.796 104.171 245.268 105.963C248.795 107.699 253.582 109.966 259.629 112.766C265.62 115.453 270.715 118.365 274.914 121.5C279.113 124.579 282.305 128.303 284.488 132.67C286.728 136.981 287.848 142.328 287.848 148.711Z" fill="#FFEF9B"/>
<path d="M411.221 63.2148V137.121C411.221 147.423 409.261 156.382 405.342 163.996C401.423 171.555 395.544 177.406 387.705 181.549C379.867 185.636 370.04 187.68 358.227 187.68C341.318 187.68 328.412 183.34 319.51 174.662C310.607 165.984 306.156 153.722 306.156 137.877V63.2148H339.498V135.273C339.498 143.952 341.122 150.251 344.369 154.17C347.617 158.089 352.404 160.049 358.73 160.049C363.266 160.049 366.961 159.209 369.816 157.529C372.672 155.794 374.743 153.078 376.031 149.383C377.375 145.688 378.047 140.928 378.047 135.105V63.2148H411.221Z" fill="#FFEF9B"/>
<path d="M437.004 186V63.2148H470.346V186H437.004Z" fill="#FFEF9B"/>
</svg>
